<?xml version="1.0" encoding="utf-8"?>
<!-- Generator: Adobe Illustrator 22.0.1, SVG Export Plug-In . SVG Version: 6.00 Build 0)  -->
<svg version="1.1" id="Layer_1" xmlns="http://www.w3.org/2000/svg" xmlns:xlink="http://www.w3.org/1999/xlink" x="0px" y="0px"
	 viewBox="0 0 124 124" style="enable-background:new 0 0 124 124;" xml:space="preserve">
<style type="text/css">
	.st0{fill:#004A98;}
	.st1{fill:#FFFFFF;}
	.st2{display:none;}
</style>
<g id="Layer_1_1_">
	
		<rect x="9.5" y="9.5" transform="matrix(0.9848 -0.1737 0.1737 0.9848 -9.8198 11.7018)" class="st0" width="104.9" height="104.9"/>
	<path class="st1" d="M34,41.6c1.3,0,2.6,0,3.9,0c0.7,0,0.9,0.2,0.9,0.9c0.1,3.5-1.2,6.3-4.2,8.1c-4.7,2.9-10.9,0.4-12.5-4.9
		c-1.4-5,1.5-9.9,6.5-11.1c3-0.7,5.6,0.2,7.8,2.4c0.4,0.4,0.4,0.7,0,1.1c-0.4,0.5-0.8,0.9-1.2,1.4c-0.4,0.5-0.7,0.6-1.2,0.1
		c-0.8-0.7-1.7-1.2-2.8-1.4c-2-0.4-4.2,0.7-5.1,2.7c-1,1.9-0.6,4.4,1,5.9c1.5,1.4,3.7,1.7,5.5,0.7c0.9-0.5,1.5-1.2,2-2.2
		c0.2-0.4,0.2-0.5-0.3-0.5c-1.4,0-2.9,0-4.3,0c-0.8,0-1-0.2-1-1c0-0.5,0-0.9,0-1.4c0-0.7,0.2-0.9,0.9-0.9
		C31.3,41.6,32.6,41.6,34,41.6z"/>
	<path class="st1" d="M81.3,43.2c0,4.8-3.9,8.7-8.7,8.7c-4.9,0-8.8-3.9-8.7-8.7c0-4.8,3.9-8.7,8.7-8.7
		C77.4,34.6,81.3,38.4,81.3,43.2z M77.5,43.2c0-2.7-2.2-5-4.9-5c-2.7,0-4.9,2.2-5,4.9c0,2.8,2.2,5,4.9,5
		C75.3,48.2,77.5,45.9,77.5,43.2z"/>
	<path class="st1" d="M60.2,43.2c0,4.9-3.9,8.7-8.8,8.7c-4.8,0-8.6-3.9-8.6-8.7c0-4.8,3.9-8.7,8.8-8.7
		C56.3,34.6,60.2,38.5,60.2,43.2z M46.5,43.2c0,2.8,2.2,5,4.9,5c2.7,0,5-2.3,5-5s-2.3-4.9-5-4.9C48.7,38.3,46.5,40.5,46.5,43.2z"/>
	<path class="st1" d="M86.2,43.2c0-2.5,0-5,0-7.5c0-0.9,0.1-1,1-1c1.9,0,5.6-0.1,7.6,0.1c3.5,0.4,6.4,3.2,7.1,6.7
		c0.7,3.5-0.8,7.1-3.7,9c-1.4,0.9-2.9,1.3-4.6,1.4c-1.6,0-4.9,0-6.5,0c-0.7,0-0.9-0.2-0.9-0.9c0,0,0,0,0-0.1
		C86.2,48.3,86.2,45.7,86.2,43.2z M90,43.2c0,1.4,0,2.9,0,4.3c0,0.4,0.1,0.5,0.5,0.5c0.7,0,3,0,3.7-0.1c2.2-0.2,4-2.1,4.2-4.2
		c0.2-2.4-1.2-4.5-3.5-5.1c-0.9-0.2-3.5-0.2-4.3-0.2c-0.4,0-0.6,0.1-0.5,0.5C90,40.4,90,41.8,90,43.2z"/>
	<path class="st1" d="M81.3,66c0,4.9-3.9,8.7-8.8,8.7c-4.8,0-8.6-3.9-8.6-8.7c0-4.8,4-8.7,8.8-8.6C77.4,57.3,81.3,61.2,81.3,66z
		 M72.5,70.9c2.7,0,5-2.3,5-5s-2.3-5-5-5s-4.9,2.2-4.9,4.9C67.6,68.7,69.8,70.9,72.5,70.9z"/>
	<path class="st1" d="M60.2,65.9c0,4.8-3.9,8.7-8.7,8.7c-4.8,0-8.7-3.9-8.7-8.6c0-4.8,3.8-8.7,8.7-8.7
		C56.3,57.2,60.1,61.1,60.2,65.9z M51.4,70.9c2.7,0,5-2.2,5-4.9c0-2.7-2.3-5-4.9-5c-2.7,0-4.9,2.2-5,4.9
		C46.5,68.6,48.7,70.9,51.4,70.9z"/>
	<path class="st1" d="M89.8,57.4c1.5,0,4.7-0.1,6.1,0.3c3.8,1,6.5,4.8,6.2,8.8s-3.4,7.4-7.3,7.9c-2.1,0.3-5.8,0.1-7.9,0.1
		c-0.5,0-0.7-0.3-0.7-0.7c0-0.1,0-0.2,0-0.3c0-5,0-10,0-15c0-0.9,0.1-1,1-1C88.1,57.4,88.9,57.4,89.8,57.4z M90,65.9
		c0,1.5,0,2.9,0,4.4c0,0.4,0.1,0.5,0.5,0.5c0.7,0,3,0,3.7-0.1c2.2-0.2,4-2.1,4.2-4.2c0.2-2.4-1.2-4.5-3.5-5.1
		c-0.9-0.2-3.5-0.2-4.3-0.2c-0.4,0-0.6,0.1-0.5,0.5C90,63.1,90,64.5,90,65.9z"/>
	<path class="st1" d="M23.6,65.9c0-2.5,0-5,0-7.5c0-0.9,0.2-1,1-1c2.5,0,10.5,0,12.9,0c0.9,0,1.1,0.2,1.1,1.1c0,0.6,0,1.2,0,1.8
		c0,0.7-0.2,0.8-0.8,0.8c-1.4,0-8.5,0-9.9,0c-0.4,0-0.6,0.1-0.5,0.5c0,0.7,0,1.4,0,2.1c0,0.4,0.1,0.5,0.5,0.5c1.3,0,7.3,0,8.5,0
		c0.8,0,0.9,0.1,1,1c0,0.5,0,1,0,1.5c0,0.7-0.2,0.8-0.8,0.8c-1.3,0-7.3,0-8.5,0c-0.5,0-0.6,0.2-0.6,0.6c0,1.8,0,3.5,0,5.3
		c0,0.8-0.2,1-1,1c-0.6,0-1.2,0-1.8,0c-0.8,0-1-0.2-1-1C23.6,71,23.6,68.5,23.6,65.9z"/>
	<path class="st1" d="M44.5,92.4l1.6-1.6l-1.6-1.6l1-2l-1.9-1l0.3-2.2l-2.3-0.4l-0.4-2.3l-2.1,0.4l-1-1.9l-2,1l-1.6-1.6l-1.6,1.6
		l-2-1l-1,1.9l-2.2-0.3l-0.4,2.3L25,84.1l0.4,2.1l-1.9,1l1,2l-1.6,1.6l1.6,1.6l-1,2l1.9,1l0.1,2.1l2.3,0.4l0.4,2.3l1.6-0.3
		l-6.1,12.5l4.3-1.3c1.2,1.4,2.5,2.7,2.5,2.7l3.9-12.2l0.9-0.2l1.5,10.7c0,0,1.5-2.1,2.5-3.4l3.6,0.1L40,99.7l1.5,0.2l0.4-2.3
		l2.3-0.4l-0.4-2.1l1.9-1L44.5,92.4z"/>
	<g>
		<path class="st1" d="M51.2,88L51.2,88c0-1.6,1.3-2.5,3.3-2.5c1,0,1.8,0.1,2.5,0.3v-0.3c0-1.5-0.9-2.3-2.5-2.3
			c-0.8,0-1.5,0.2-2.1,0.5c-0.1,0-0.1,0-0.2,0c-0.2,0-0.3-0.2-0.3-0.3c0-0.2,0.1-0.3,0.2-0.3c0.8-0.3,1.5-0.6,2.5-0.6
			s1.8,0.3,2.4,0.8c0.5,0.5,0.8,1.2,0.8,2.1v4.4c0,0.2-0.1,0.4-0.4,0.4S57,90.1,57,89.8v-0.9c-0.5,0.7-1.4,1.4-2.9,1.4
			C52.7,90.3,51.2,89.5,51.2,88z M57,87.3v-0.8c-0.6-0.2-1.5-0.3-2.6-0.3c-1.6,0-2.5,0.7-2.5,1.8l0,0c0,1.1,1,1.7,2.2,1.7
			C55.7,89.6,57,88.7,57,87.3z"/>
		<path class="st1" d="M62,89.9l-2.5-6.8c0-0.1-0.1-0.2-0.1-0.2c0-0.2,0.2-0.4,0.4-0.4s0.3,0.1,0.4,0.3l2.2,6.4l2.2-6.4
			c0.1-0.2,0.2-0.3,0.4-0.3l0,0c0.2,0,0.3,0.1,0.4,0.3l2.2,6.4l2.2-6.4c0-0.1,0.1-0.3,0.4-0.3s0.4,0.2,0.4,0.3c0,0.1,0,0.2-0.1,0.3
			L68,89.9c-0.1,0.2-0.2,0.3-0.4,0.3l0,0c-0.2,0-0.3-0.1-0.4-0.3l-2.1-6.2l-2.2,6.2c-0.1,0.2-0.2,0.3-0.4,0.3l0,0
			C62.2,90.3,62.1,90.1,62,89.9z"/>
		<path class="st1" d="M71.8,88L71.8,88c0-1.6,1.3-2.5,3.3-2.5c1,0,1.8,0.1,2.5,0.3v-0.3c0-1.5-0.9-2.3-2.5-2.3
			c-0.8,0-1.5,0.2-2.1,0.5c-0.1,0-0.1,0-0.2,0c-0.2,0-0.3-0.2-0.3-0.3c0-0.2,0.1-0.3,0.2-0.3c0.8-0.3,1.5-0.6,2.5-0.6
			s1.8,0.3,2.4,0.8c0.5,0.5,0.8,1.2,0.8,2.1v4.4c0,0.2-0.1,0.4-0.4,0.4s-0.4-0.1-0.4-0.4v-0.9c-0.5,0.7-1.4,1.4-2.9,1.4
			C73.3,90.3,71.8,89.5,71.8,88z M77.6,87.3v-0.8c-0.6-0.2-1.5-0.3-2.6-0.3c-1.6,0-2.5,0.7-2.5,1.8l0,0c0,1.1,1,1.7,2.2,1.7
			C76.3,89.6,77.6,88.7,77.6,87.3z"/>
		<path class="st1" d="M80.9,82.9c0-0.2,0.1-0.4,0.4-0.4s0.4,0.1,0.4,0.4v1.8c0.6-1.5,2-2.3,3-2.3c0.2,0,0.4,0.2,0.4,0.4
			c0,0.2-0.1,0.4-0.4,0.4c-1.6,0.1-3,1.3-3,3.8v2.8c0,0.2-0.1,0.4-0.4,0.4s-0.4-0.1-0.4-0.4V82.9z"/>
		<path class="st1" d="M93.4,89.8c0,0.2-0.1,0.4-0.4,0.4s-0.4-0.1-0.4-0.4v-1.3c-0.6,1-1.6,1.9-3.1,1.9c-1.8,0-3.7-1.5-3.7-3.9l0,0
			c0-2.4,1.8-3.9,3.7-3.9c1.5,0,2.5,0.9,3.1,1.8v-4.6c0-0.2,0.1-0.4,0.4-0.4s0.4,0.1,0.4,0.4V89.8z M86.7,86.4L86.7,86.4
			c0,2,1.4,3.3,3,3.3s3.1-1.3,3.1-3.2l0,0c0-1.9-1.5-3.2-3.1-3.2C88,83.1,86.7,84.3,86.7,86.4z"/>
		<path class="st1" d="M95.7,89.3c-0.1,0-0.1-0.2-0.1-0.3c0-0.2,0.2-0.4,0.4-0.4c0.1,0,0.2,0,0.2,0.1c0.8,0.6,1.6,0.9,2.5,0.9
			c1,0,1.8-0.6,1.8-1.4l0,0c0-0.9-0.9-1.2-2-1.5c-1.2-0.4-2.6-0.7-2.6-2.1l0,0c0-1.2,1-2.1,2.5-2.1c0.8,0,1.7,0.3,2.4,0.7
			c0.1,0.1,0.2,0.2,0.2,0.3c0,0.2-0.2,0.4-0.4,0.4c-0.1,0-0.2,0-0.2-0.1c-0.6-0.4-1.4-0.6-2.1-0.6c-1,0-1.7,0.6-1.7,1.3l0,0
			c0,0.8,1,1.2,2.1,1.5c1.2,0.3,2.5,0.8,2.5,2.1l0,0c0,1.3-1.2,2.2-2.6,2.2C97.6,90.3,96.5,89.9,95.7,89.3z"/>
	</g>
</g>
<g id="Layer_3">
</g>
<g id="Isolation_Mode" class="st2">
</g>
</svg>
